<mxfile host="app.diagrams.net" modified="2022-02-16T07:56:01.831Z" agent="5.0 (X11; Linux x86_64) AppleWebKit/537.36 (KHTML, like Gecko) Chrome/97.0.4692.71 Safari/537.36" etag="_FpRSZmGl8Y85qDcrlmI" version="16.2.7" type="github">
  <diagram id="oI5USlNPpPssLxzci8PM" name="BufferQueue">
    <mxGraphModel dx="1990" dy="1133" grid="1" gridSize="10" guides="1" tooltips="1" connect="1" arrows="1" fold="1" page="1" pageScale="1" pageWidth="827" pageHeight="1169" background="none" math="0" shadow="0">
      <root>
        <mxCell id="0" />
        <mxCell id="1" parent="0" />
        <mxCell id="7YqIVf8YjmdOn8GUHnO3-2" value="Producer" style="rounded=1;whiteSpace=wrap;html=1;verticalAlign=top;fontColor=#143642;dashed=1;fillColor=#FAE5C7;strokeColor=#0F8B8D;" vertex="1" parent="1">
          <mxGeometry x="160" y="600" width="100" height="339" as="geometry" />
        </mxCell>
        <mxCell id="7YqIVf8YjmdOn8GUHnO3-3" value="BufferQueue" style="rounded=1;whiteSpace=wrap;html=1;verticalAlign=top;fontColor=#143642;dashed=1;fillColor=#FAE5C7;strokeColor=#0F8B8D;" vertex="1" parent="1">
          <mxGeometry x="360" y="600" width="100" height="339" as="geometry" />
        </mxCell>
        <mxCell id="7YqIVf8YjmdOn8GUHnO3-4" value="Consumer" style="rounded=1;whiteSpace=wrap;html=1;verticalAlign=top;fillColor=#FAE5C7;fontColor=#143642;dashed=1;strokeColor=#0F8B8D;" vertex="1" parent="1">
          <mxGeometry x="560" y="600" width="100" height="339" as="geometry" />
        </mxCell>
        <mxCell id="7YqIVf8YjmdOn8GUHnO3-5" value="Free" style="rounded=1;whiteSpace=wrap;html=1;fillColor=#FAE5C7;strokeColor=#0F8B8D;fontColor=#143642;" vertex="1" parent="1">
          <mxGeometry x="370" y="639" width="80" height="40" as="geometry" />
        </mxCell>
        <mxCell id="7YqIVf8YjmdOn8GUHnO3-6" value="Dequeued" style="rounded=1;whiteSpace=wrap;html=1;fillColor=#FAE5C7;strokeColor=#0F8B8D;fontColor=#143642;" vertex="1" parent="1">
          <mxGeometry x="170" y="759" width="80" height="40" as="geometry" />
        </mxCell>
        <mxCell id="7YqIVf8YjmdOn8GUHnO3-7" value="Queued" style="rounded=1;whiteSpace=wrap;html=1;fillColor=#FAE5C7;strokeColor=#0F8B8D;fontColor=#143642;" vertex="1" parent="1">
          <mxGeometry x="370" y="879" width="80" height="40" as="geometry" />
        </mxCell>
        <mxCell id="7YqIVf8YjmdOn8GUHnO3-8" value="Acquired" style="rounded=1;whiteSpace=wrap;html=1;fillColor=#FAE5C7;strokeColor=#0F8B8D;fontColor=#143642;" vertex="1" parent="1">
          <mxGeometry x="570" y="759" width="80" height="40" as="geometry" />
        </mxCell>
        <mxCell id="7YqIVf8YjmdOn8GUHnO3-9" value="" style="endArrow=classic;html=1;rounded=0;exitX=0.25;exitY=0;exitDx=0;exitDy=0;entryX=0;entryY=0.25;entryDx=0;entryDy=0;labelBackgroundColor=#DAD2D8;strokeColor=#A8201A;fontColor=#143642;" edge="1" parent="1" source="7YqIVf8YjmdOn8GUHnO3-6" target="7YqIVf8YjmdOn8GUHnO3-5">
          <mxGeometry width="50" height="50" relative="1" as="geometry">
            <mxPoint x="430" y="759" as="sourcePoint" />
            <mxPoint x="480" y="709" as="targetPoint" />
          </mxGeometry>
        </mxCell>
        <mxCell id="7YqIVf8YjmdOn8GUHnO3-17" value="cancelBuffer |&amp;nbsp; detachBuffer" style="edgeLabel;html=1;align=center;verticalAlign=middle;resizable=0;points=[];rotation=-30;labelBackgroundColor=#DAD2D8;fontColor=#143642;" vertex="1" connectable="0" parent="7YqIVf8YjmdOn8GUHnO3-9">
          <mxGeometry x="0.2104" y="-1" relative="1" as="geometry">
            <mxPoint x="-14" y="-4" as="offset" />
          </mxGeometry>
        </mxCell>
        <mxCell id="7YqIVf8YjmdOn8GUHnO3-10" value="" style="endArrow=classic;html=1;rounded=0;exitX=0;exitY=0.75;exitDx=0;exitDy=0;entryX=0.75;entryY=0;entryDx=0;entryDy=0;labelBackgroundColor=#DAD2D8;strokeColor=#A8201A;fontColor=#143642;" edge="1" parent="1" source="7YqIVf8YjmdOn8GUHnO3-5" target="7YqIVf8YjmdOn8GUHnO3-6">
          <mxGeometry width="50" height="50" relative="1" as="geometry">
            <mxPoint x="220" y="799" as="sourcePoint" />
            <mxPoint x="440.0000000000002" y="689" as="targetPoint" />
          </mxGeometry>
        </mxCell>
        <mxCell id="7YqIVf8YjmdOn8GUHnO3-16" value="dequeueBuffer" style="edgeLabel;html=1;align=center;verticalAlign=middle;resizable=0;points=[];rotation=-30;labelBackgroundColor=#DAD2D8;fontColor=#143642;" vertex="1" connectable="0" parent="7YqIVf8YjmdOn8GUHnO3-10">
          <mxGeometry x="-0.2948" y="3" relative="1" as="geometry">
            <mxPoint x="-10" y="12" as="offset" />
          </mxGeometry>
        </mxCell>
        <mxCell id="7YqIVf8YjmdOn8GUHnO3-12" value="" style="endArrow=classic;html=1;rounded=0;exitX=0.5;exitY=1;exitDx=0;exitDy=0;entryX=0;entryY=0.5;entryDx=0;entryDy=0;labelBackgroundColor=#DAD2D8;strokeColor=#A8201A;fontColor=#143642;" edge="1" parent="1" source="7YqIVf8YjmdOn8GUHnO3-6" target="7YqIVf8YjmdOn8GUHnO3-7">
          <mxGeometry width="50" height="50" relative="1" as="geometry">
            <mxPoint x="170" y="839" as="sourcePoint" />
            <mxPoint x="390" y="729" as="targetPoint" />
          </mxGeometry>
        </mxCell>
        <mxCell id="7YqIVf8YjmdOn8GUHnO3-18" value="queueBuffer | attachBuffer" style="edgeLabel;html=1;align=center;verticalAlign=middle;resizable=0;points=[];rotation=30;labelBackgroundColor=#DAD2D8;fontColor=#143642;" vertex="1" connectable="0" parent="7YqIVf8YjmdOn8GUHnO3-12">
          <mxGeometry x="0.0488" y="-1" relative="1" as="geometry">
            <mxPoint x="-16" y="-1" as="offset" />
          </mxGeometry>
        </mxCell>
        <mxCell id="7YqIVf8YjmdOn8GUHnO3-13" value="" style="endArrow=classic;html=1;rounded=0;exitX=1;exitY=0.5;exitDx=0;exitDy=0;entryX=0.5;entryY=1;entryDx=0;entryDy=0;labelBackgroundColor=#DAD2D8;strokeColor=#A8201A;fontColor=#143642;" edge="1" parent="1" source="7YqIVf8YjmdOn8GUHnO3-7" target="7YqIVf8YjmdOn8GUHnO3-8">
          <mxGeometry width="50" height="50" relative="1" as="geometry">
            <mxPoint x="530" y="879" as="sourcePoint" />
            <mxPoint x="580" y="829" as="targetPoint" />
          </mxGeometry>
        </mxCell>
        <mxCell id="7YqIVf8YjmdOn8GUHnO3-19" value="acquireBuffer" style="edgeLabel;html=1;align=center;verticalAlign=middle;resizable=0;points=[];rotation=-30;labelBackgroundColor=#DAD2D8;fontColor=#143642;" vertex="1" connectable="0" parent="7YqIVf8YjmdOn8GUHnO3-13">
          <mxGeometry x="0.1246" y="1" relative="1" as="geometry">
            <mxPoint y="9" as="offset" />
          </mxGeometry>
        </mxCell>
        <mxCell id="7YqIVf8YjmdOn8GUHnO3-14" value="" style="endArrow=classic;html=1;rounded=0;exitX=0.5;exitY=0;exitDx=0;exitDy=0;entryX=1;entryY=0.5;entryDx=0;entryDy=0;labelBackgroundColor=#DAD2D8;strokeColor=#A8201A;fontColor=#143642;" edge="1" parent="1" source="7YqIVf8YjmdOn8GUHnO3-8" target="7YqIVf8YjmdOn8GUHnO3-5">
          <mxGeometry width="50" height="50" relative="1" as="geometry">
            <mxPoint x="430" y="759" as="sourcePoint" />
            <mxPoint x="480" y="709" as="targetPoint" />
          </mxGeometry>
        </mxCell>
        <mxCell id="7YqIVf8YjmdOn8GUHnO3-20" value="releaseBuffer | detachBuffer" style="edgeLabel;html=1;align=center;verticalAlign=middle;resizable=0;points=[];rotation=30;labelBackgroundColor=#DAD2D8;fontColor=#143642;" vertex="1" connectable="0" parent="7YqIVf8YjmdOn8GUHnO3-14">
          <mxGeometry x="-0.1566" y="-1" relative="1" as="geometry">
            <mxPoint x="-2" y="-12" as="offset" />
          </mxGeometry>
        </mxCell>
        <mxCell id="7YqIVf8YjmdOn8GUHnO3-15" value="" style="endArrow=classic;html=1;rounded=0;exitX=0.5;exitY=0;exitDx=0;exitDy=0;entryX=0.5;entryY=1;entryDx=0;entryDy=0;labelBackgroundColor=#DAD2D8;strokeColor=#A8201A;fontColor=#143642;" edge="1" parent="1" source="7YqIVf8YjmdOn8GUHnO3-7" target="7YqIVf8YjmdOn8GUHnO3-5">
          <mxGeometry width="50" height="50" relative="1" as="geometry">
            <mxPoint x="430" y="759" as="sourcePoint" />
            <mxPoint x="480" y="709" as="targetPoint" />
          </mxGeometry>
        </mxCell>
      </root>
    </mxGraphModel>
  </diagram>
</mxfile>
